<svg width="56" height="56" viewBox="0 0 56 56" fill="none" xmlns="http://www.w3.org/2000/svg">
<g clip-path="url(#clip0_5_2)">
<path d="M0.0932007 28V55.9348L6.22432 55.8789C9.58804 55.8416 14.3122 55.7857 16.7068 55.7484L21.0769 55.6925L21.0489 45.3404L21.021 34.9884L27.9814 34.9604L34.9418 34.9418V31.5408V28.1398H28H21.0583V27.4782C21.0583 26.2296 21.5801 24.8879 22.5118 23.7045C23.2014 22.8286 23.9281 22.2416 24.9251 21.7571C26.0153 21.2166 26.8167 21.0396 28.0466 21.0396C29.7052 21.0489 31.0842 21.5335 32.3887 22.5864L33.0316 23.1082L35.4356 20.7042C36.7494 19.3904 37.8303 18.2443 37.8303 18.1697C37.8303 17.9927 36.9917 17.2473 36.032 16.5577C34.6157 15.5421 32.6217 14.6849 30.7488 14.2842C29.6027 14.0419 26.3787 14.0419 25.2513 14.2935C20.4899 15.3371 16.7441 18.4679 15.011 22.8473C14.8619 23.22 14.6103 24.0958 14.4426 24.7854C14.1724 25.9501 14.1444 26.211 14.0699 28.3727C14.0326 29.6493 14.0233 32.2303 14.042 34.1032C14.0699 35.976 14.0606 40.0945 14.0233 43.2626L13.9581 49.0117L10.4919 48.993L7.03496 48.9651L7.02565 38.8552C7.00701 26.6769 7.0536 25.6426 7.74312 22.8286C8.74012 18.8033 11.3025 14.7035 14.5265 12.0107C18.6822 8.51648 24.1984 6.68087 29.3511 7.07222C36.3767 7.59402 42.4426 11.3491 46.0672 17.3963C47.7724 20.229 48.9185 24.1797 48.9185 27.18V27.9534H52.4127H55.9068V27.2266C55.9068 25.4097 55.4689 22.6516 54.8726 20.6855C54.3135 18.8592 54.1924 18.4679 53.9128 17.797C52.3195 13.9301 50.4932 11.1814 47.5674 8.23694C43.0949 3.73645 37.3831 0.95974 31.1215 0.242269C29.6772 0.0745482 26.7608 0.0465948 25.3351 0.186362C21.8969 0.531121 18.5704 1.49085 15.4676 3.03761C12.7934 4.37937 10.7062 5.87954 8.42332 8.12513C7.40768 9.12214 7.09087 9.38303 7.04428 9.27122C7.01633 9.18736 6.98838 8.44194 6.98838 7.63129C6.98838 5.82363 6.85793 5.13412 6.2709 3.93212C5.2739 1.84493 3.01899 0.270222 0.819989 0.111819L0.0932007 0.0652304V28Z" fill="white"/>
</g>
<defs>
<clipPath id="clip0_5_2">
<rect width="56" height="56" fill="white"/>
</clipPath>
</defs>
</svg>
